<?xml version="1.0" encoding="UTF-8"?>
<svg width="64px" height="64px" viewBox="0 0 64 64" version="1.1" xmlns="http://www.w3.org/2000/svg" xmlns:xlink="http://www.w3.org/1999/xlink">
    <!-- Generator: Sketch 52.6 (67491) - http://www.bohemiancoding.com/sketch -->
    <title>Vinyl@2x</title>
    <desc>Created with Sketch.</desc>
    <g id="Page-1" stroke="none" stroke-width="1" fill="none" fill-rule="evenodd">
        <g id="Desktop" transform="translate(-27.000000, -21.000000)" fill="#FFFFFF">
            <path d="M51.989,75.436 C44.628,73.139 38.861,67.373 36.564,60.011 C36.482,59.748 36.206,59.6 35.937,59.683 C35.675,59.766 35.527,60.046 35.609,60.31 C38.005,67.984 44.016,73.996 51.69,76.391 C51.74,76.407 51.791,76.414 51.84,76.414 C52.052,76.414 52.25,76.277 52.317,76.063 C52.399,75.799 52.252,75.519 51.989,75.436 M52.885,72.572 C46.463,70.568 41.432,65.538 39.428,59.116 C39.346,58.853 39.068,58.705 38.801,58.788 C38.538,58.871 38.391,59.151 38.473,59.415 C40.576,66.149 45.851,71.424 52.586,73.527 C52.635,73.542 52.686,73.549 52.735,73.549 C52.948,73.549 53.145,73.413 53.213,73.199 C53.295,72.935 53.148,72.655 52.885,72.572 M51.093,78.3 C42.794,75.709 36.291,69.207 33.7,60.907 C33.617,60.644 33.343,60.495 33.073,60.579 C32.809,60.662 32.663,60.942 32.745,61.206 C35.434,69.818 42.182,76.566 50.795,79.255 C50.844,79.271 50.895,79.278 50.944,79.278 C51.157,79.278 51.354,79.141 51.422,78.927 C51.504,78.664 51.357,78.383 51.093,78.3 M66.309,29.61 C66.043,29.527 65.765,29.676 65.682,29.938 C65.6,30.202 65.748,30.482 66.01,30.564 C73.372,32.862 79.138,38.628 81.435,45.989 C81.503,46.203 81.7,46.34 81.913,46.34 C81.962,46.34 82.012,46.333 82.062,46.317 C82.325,46.235 82.472,45.955 82.39,45.691 C79.995,38.017 73.983,32.005 66.309,29.61 M65.415,32.475 C65.147,32.39 64.871,32.54 64.788,32.803 C64.706,33.067 64.853,33.347 65.116,33.429 C71.537,35.434 76.566,40.463 78.571,46.884 C78.638,47.098 78.836,47.235 79.049,47.235 C79.097,47.235 79.148,47.228 79.198,47.212 C79.462,47.13 79.608,46.85 79.526,46.586 C77.424,39.852 72.148,34.577 65.415,32.475 M85.255,44.796 C82.565,36.183 75.818,29.435 67.205,26.746 C66.937,26.661 66.661,26.811 66.578,27.074 C66.496,27.338 66.642,27.618 66.906,27.7 C75.207,30.292 81.709,36.794 84.3,45.094 C84.367,45.308 84.564,45.445 84.777,45.445 C84.826,45.445 84.877,45.438 84.927,45.422 C85.19,45.34 85.337,45.06 85.255,44.796 M59,54 C58.448,54 58,53.552 58,53 C58,52.449 58.448,52 59,52 C59.551,52 60,52.449 60,53 C60,53.552 59.551,54 59,54 M59,51 C57.895,51 57,51.896 57,53 C57,54.105 57.895,55 59,55 C60.104,55 61,54.105 61,53 C61,51.896 60.104,51 59,51 M59,62 C54.037,62 50,57.963 50,53 C50,48.038 54.037,44 59,44 C63.962,44 68,48.038 68,53 C68,57.963 63.962,62 59,62 M59,42 C52.925,42 48,46.925 48,53 C48,59.076 52.925,64 59,64 C65.075,64 70,59.076 70,53 C70,46.925 65.075,42 59,42 M59,83 C42.458,83 29,69.543 29,53 C29,36.458 42.458,23 59,23 C75.542,23 89,36.458 89,53 C89,69.543 75.542,83 59,83 M59,21 C41.327,21 27,35.327 27,53 C27,70.674 41.327,85 59,85 C76.673,85 91,70.674 91,53 C91,35.327 76.673,21 59,21" id="Vinyl"></path>
        </g>
    </g>
</svg>