<?xml version="1.0" encoding="UTF-8"?>
<svg width="64px" height="64px" viewBox="0 0 64 64" version="1.1" xmlns="http://www.w3.org/2000/svg" xmlns:xlink="http://www.w3.org/1999/xlink">
    <!-- Generator: Sketch 52.6 (67491) - http://www.bohemiancoding.com/sketch -->
    <title>VinylBlack@2x</title>
    <desc>Created with Sketch.</desc>
    <g id="Page-1" stroke="none" stroke-width="1" fill="none" fill-rule="evenodd">
        <path d="M24.989,54.436 C17.628,52.139 11.861,46.373 9.564,39.011 C9.482,38.748 9.206,38.6 8.937,38.683 C8.675,38.766 8.527,39.046 8.609,39.31 C11.005,46.984 17.016,52.996 24.69,55.391 C24.74,55.407 24.791,55.414 24.84,55.414 C25.052,55.414 25.25,55.277 25.317,55.063 C25.399,54.799 25.252,54.519 24.989,54.436 M25.885,51.572 C19.463,49.568 14.432,44.538 12.428,38.116 C12.346,37.853 12.068,37.705 11.801,37.788 C11.538,37.871 11.391,38.151 11.473,38.415 C13.576,45.149 18.851,50.424 25.586,52.527 C25.635,52.542 25.686,52.549 25.735,52.549 C25.948,52.549 26.145,52.413 26.213,52.199 C26.295,51.935 26.148,51.655 25.885,51.572 M24.093,57.3 C15.794,54.709 9.291,48.207 6.7,39.907 C6.617,39.644 6.343,39.495 6.073,39.579 C5.809,39.662 5.663,39.942 5.745,40.206 C8.434,48.818 15.182,55.566 23.795,58.255 C23.844,58.271 23.895,58.278 23.944,58.278 C24.157,58.278 24.354,58.141 24.422,57.927 C24.504,57.664 24.357,57.383 24.093,57.3 M39.309,8.61 C39.043,8.527 38.765,8.676 38.682,8.938 C38.6,9.202 38.748,9.482 39.01,9.564 C46.372,11.862 52.138,17.628 54.435,24.989 C54.503,25.203 54.7,25.34 54.913,25.34 C54.962,25.34 55.012,25.333 55.062,25.317 C55.325,25.235 55.472,24.955 55.39,24.691 C52.995,17.017 46.983,11.005 39.309,8.61 M38.415,11.475 C38.147,11.39 37.871,11.54 37.788,11.803 C37.706,12.067 37.853,12.347 38.116,12.429 C44.537,14.434 49.566,19.463 51.571,25.884 C51.638,26.098 51.836,26.235 52.049,26.235 C52.097,26.235 52.148,26.228 52.198,26.212 C52.462,26.13 52.608,25.85 52.526,25.586 C50.424,18.852 45.148,13.577 38.415,11.475 M58.255,23.796 C55.565,15.183 48.818,8.435 40.205,5.746 C39.937,5.661 39.661,5.811 39.578,6.074 C39.496,6.338 39.642,6.618 39.906,6.7 C48.207,9.292 54.709,15.794 57.3,24.094 C57.367,24.308 57.564,24.445 57.777,24.445 C57.826,24.445 57.877,24.438 57.927,24.422 C58.19,24.34 58.337,24.06 58.255,23.796 M32,33 C31.448,33 31,32.552 31,32 C31,31.449 31.448,31 32,31 C32.551,31 33,31.449 33,32 C33,32.552 32.551,33 32,33 M32,30 C30.895,30 30,30.896 30,32 C30,33.105 30.895,34 32,34 C33.104,34 34,33.105 34,32 C34,30.896 33.104,30 32,30 M32,41 C27.037,41 23,36.963 23,32 C23,27.038 27.037,23 32,23 C36.962,23 41,27.038 41,32 C41,36.963 36.962,41 32,41 M32,21 C25.925,21 21,25.925 21,32 C21,38.076 25.925,43 32,43 C38.075,43 43,38.076 43,32 C43,25.925 38.075,21 32,21 M32,62 C15.458,62 2,48.543 2,32 C2,15.458 15.458,2 32,2 C48.542,2 62,15.458 62,32 C62,48.543 48.542,62 32,62 M32,0 C14.327,0 0,14.327 0,32 C0,49.674 14.327,64 32,64 C49.673,64 64,49.674 64,32 C64,14.327 49.673,0 32,0" id="VinylBlack" fill="#1B2831"></path>
    </g>
</svg>